<svg width="150" height="42" viewBox="0 0 150 42" fill="none" xmlns="http://www.w3.org/2000/svg">
<path d="M34.3609 22.6564C33.498 21.3849 32.2946 20.4244 30.7506 19.7727C30.4713 19.6558 30.1852 19.5491 29.8922 19.4525C31.1207 18.8031 32.1039 17.9255 32.8396 16.8209C33.657 15.5947 34.0657 14.1494 34.0657 12.4839C34.0657 10.0021 33.0587 8.00393 31.0457 6.4894C29.0317 4.97601 26.0276 4.21875 22.0313 4.21875H6.5V36.0079H22.9395C27.1175 36.0079 30.2805 35.2438 32.4308 33.7145C34.58 32.1864 35.6552 30.0588 35.6552 27.334C35.6552 25.4879 35.2237 23.928 34.3609 22.6564ZM21.123 9.75914C22.9089 9.75914 24.2792 10.0702 25.2329 10.6901C26.1865 11.3111 26.6634 12.2421 26.6634 13.483C26.6634 14.7239 26.1865 15.7014 25.2329 16.3213C24.2792 16.9423 22.9089 17.2523 21.123 17.2523H13.8115V9.75914H21.123ZM26.7315 29.5365C25.7472 30.1575 24.3019 30.4675 22.3946 30.4675H13.8115V22.611H22.3946C24.3019 22.611 25.7472 22.9369 26.7315 23.5874C27.7147 24.2391 28.2074 25.2302 28.2074 26.562C28.2074 27.8937 27.7147 28.9166 26.7315 29.5365Z" fill="#01163A"/>
<path d="M67.4892 21.9764V4.21875H60.2231V21.7482C60.2231 21.8254 60.2209 21.9003 60.2197 21.9764H67.4892Z" fill="#00CBEA"/>
<path d="M67.4892 21.9764V4.21875L60.2231 11.0307V21.7482C60.2231 21.8254 60.2209 21.9003 60.2197 21.9764H67.4892Z" fill="#0080FF"/>
<path d="M60.2197 21.9768H67.4892V5.35449L60.2231 21.7032" fill="#005CFF"/>
<path d="M60.1037 23.8849C59.8687 25.8251 59.2885 27.2931 58.3621 28.2876C57.12 29.6205 55.3796 30.2858 53.1396 30.2858C50.8996 30.2858 49.158 29.6205 47.9171 28.2876C46.675 26.9559 46.0552 24.7761 46.0552 21.7482V4.21875H38.6982V22.0207C38.6982 26.6834 39.9698 30.2711 42.5129 32.7835C45.0561 35.2971 48.5824 36.5528 53.0942 36.5528C57.606 36.5528 61.1323 35.2971 63.6754 32.7835C65.8689 30.6173 67.1143 27.6507 67.4174 23.8849H60.1048H60.1037Z" fill="#01163A"/>
<path d="M75.3945 32.5642V5.19606H80.7215V14.1129H88.5189V5.19606H93.8458V32.5642H75.3945ZM88.5189 18.745H80.7215V27.8549H88.5189V18.745ZM98.5166 38.2V4.11523H103.844V16.5062H108.476V21.6015H103.844V38.2H98.5166Z" fill="#01163A"/>
<path d="M112.877 37.8917V25.8482H123.917V23.1461H109.827V18.514H143.41V23.1461H129.321V25.8482H140.361V37.8917H112.877ZM119.748 16.8156C115.115 16.8156 112.066 14.4223 112.066 10.4078C112.066 6.39327 115.115 4 119.748 4H133.49C138.122 4 141.171 6.39327 141.171 10.4078C141.171 14.4223 138.122 16.8156 133.49 16.8156H119.748ZM120.327 8.63213C118.474 8.63213 117.393 9.40415 117.393 10.4078C117.393 11.5272 118.474 12.1834 120.327 12.1834H132.911C134.763 12.1834 135.844 11.5272 135.844 10.4078C135.844 9.28835 134.763 8.63213 132.911 8.63213H120.327ZM135.034 30.4031H118.204V33.2596H135.034V30.4031Z" fill="#01163A"/>
</svg>
